<?xml version="1.0" encoding="UTF-8" standalone="no"?>
<!DOCTYPE svg PUBLIC "-//W3C//DTD SVG 1.1//EN"
 "http://www.w3.org/Graphics/SVG/1.1/DTD/svg11.dtd">
<!-- Generated by graphviz version 2.38.0 (20140413.2041)
 -->
<!-- Title: dependency&#45;cruiser output Pages: 1 -->
<svg width="231pt" height="136pt"
 viewBox="0.00 0.00 231.00 136.00" xmlns="http://www.w3.org/2000/svg" xmlns:xlink="http://www.w3.org/1999/xlink">
<g id="graph0" class="graph" transform="scale(1 1) rotate(0) translate(4 132)">
<title>dependency&#45;cruiser output</title>
<g id="clust1" class="cluster"><title>cluster_src</title>
<path fill="#ffffff" stroke="black" stroke-width="2" d="M41,-68C41,-68 203,-68 203,-68 209,-68 215,-74 215,-80 215,-80 215,-108 215,-108 215,-114 209,-120 203,-120 203,-120 41,-120 41,-120 35,-120 29,-114 29,-108 29,-108 29,-80 29,-80 29,-74 35,-68 41,-68"/>
<text text-anchor="middle" x="122" y="-108.8" font-family="Helvetica,sans-Serif" font-weight="bold" font-size="9.00">src</text>
</g>
<g id="clust2" class="cluster"><title>cluster_test</title>
<path fill="#ffffff" stroke="black" stroke-width="2" d="M20,-8C20,-8 108,-8 108,-8 114,-8 120,-14 120,-20 120,-20 120,-48 120,-48 120,-54 114,-60 108,-60 108,-60 20,-60 20,-60 14,-60 8,-54 8,-48 8,-48 8,-20 8,-20 8,-14 14,-8 20,-8"/>
<text text-anchor="middle" x="64" y="-48.8" font-family="Helvetica,sans-Serif" font-weight="bold" font-size="9.00">test</text>
</g>
<!-- src/app.js -->
<g id="node1" class="node"><title>src/app.js</title>
<g id="a_node1"><a xlink:href="src/app.js" xlink:title="app.js">
<path fill="#ffffcc" stroke="black" d="M85,-94C85,-94 43,-94 43,-94 40,-94 37,-91 37,-88 37,-88 37,-82 37,-82 37,-79 40,-76 43,-76 43,-76 85,-76 85,-76 88,-76 91,-79 91,-82 91,-82 91,-88 91,-88 91,-91 88,-94 85,-94"/>
<text text-anchor="middle" x="64" y="-82.8" font-family="Helvetica,sans-Serif" font-size="9.00">app.js</text>
</a>
</g>
</g>
<!-- src/shaverSharp.js -->
<g id="node2" class="node"><title>src/shaverSharp.js</title>
<g id="a_node2"><a xlink:href="src/shaverSharp.js" xlink:title="shaverSharp.js">
<path fill="#ffffcc" stroke="black" d="M201,-94C201,-94 134,-94 134,-94 131,-94 128,-91 128,-88 128,-88 128,-82 128,-82 128,-79 131,-76 134,-76 134,-76 201,-76 201,-76 204,-76 207,-79 207,-82 207,-82 207,-88 207,-88 207,-91 204,-94 201,-94"/>
<text text-anchor="middle" x="167.5" y="-82.8" font-family="Helvetica,sans-Serif" font-size="9.00">shaverSharp.js</text>
</a>
</g>
</g>
<!-- src/app.js&#45;&gt;src/shaverSharp.js -->
<g id="edge1" class="edge"><title>src/app.js&#45;&gt;src/shaverSharp.js</title>
<path fill="none" stroke="#999999" d="M91.1388,-85C100.73,-85 111.868,-85 122.591,-85"/>
<polygon fill="#999999" stroke="#999999" points="122.813,-86.7501 127.813,-85 122.813,-83.2501 122.813,-86.7501"/>
</g>
<!-- test/shaverSharp.test.js -->
<g id="node3" class="node"><title>test/shaverSharp.test.js</title>
<g id="a_node3"><a xlink:href="test/shaverSharp.test.js" xlink:title="shaverSharp.test.js">
<path fill="#ffffcc" stroke="black" d="M106,-34C106,-34 22,-34 22,-34 19,-34 16,-31 16,-28 16,-28 16,-22 16,-22 16,-19 19,-16 22,-16 22,-16 106,-16 106,-16 109,-16 112,-19 112,-22 112,-22 112,-28 112,-28 112,-31 109,-34 106,-34"/>
<text text-anchor="middle" x="64" y="-22.8" font-family="Helvetica,sans-Serif" font-size="9.00">shaverSharp.test.js</text>
</a>
</g>
</g>
<!-- test/shaverSharp.test.js&#45;&gt;src/shaverSharp.js -->
<g id="edge2" class="edge"><title>test/shaverSharp.test.js&#45;&gt;src/shaverSharp.js</title>
<path fill="none" stroke="#999999" d="M80.4157,-34.1127C98.1049,-44.5694 127.164,-61.7473 146.561,-73.2136"/>
<polygon fill="#999999" stroke="#999999" points="146.077,-74.9602 151.272,-75.9981 147.858,-71.9472 146.077,-74.9602"/>
</g>
</g>
</svg>
